<?xml version="1.0" encoding="UTF-8"?><svg id="Layer_5" xmlns="http://www.w3.org/2000/svg" viewBox="0 0 501.22 482.56"><defs><style>.cls-1{fill:#6b6b6b;}.cls-1,.cls-2,.cls-3,.cls-4{stroke-width:0px;}.cls-2{fill:#86d1bc;}.cls-3{fill:#ffddb8;}.cls-4{fill:#6db29c;}</style></defs><path class="cls-4" d="M448.77,65.33c1.17-12.06-12.19-20.07-22.28-13.35l-72.78,48.43c33.04,26.63,58.06,65.7,70.01,111.38,3.06-4.8,4.94-12.31,5.5-18.01l19.55-128.44Z"/><path class="cls-4" d="M137.34,109.22l-92.68-23.55c-10.35-2.63-19.25,7.71-15.11,17.56l47.11,111.83c10.4-42.24,31.93-79.03,60.67-105.84Z"/><path class="cls-3" d="M204.35,67.12C159.86,14.98,121.65-9.98,90.08,3.7c-1.84,6.72,19.73,14.32,37.77,38.25,15.01,19.91,20.95,39.51,25.46,53.94,16-11.86,33.71-20.88,52.6-26.45-.46-.78-.98-1.55-1.56-2.32Z"/><path class="cls-3" d="M373.38,41.95c18.04-23.93,39.61-31.53,37.77-38.25-31.57-13.67-69.78,11.28-114.27,63.43-.58.76-1.1,1.54-1.56,2.32,18.9,5.57,36.61,14.59,52.6,26.45,4.51-14.43,10.45-34.03,25.46-53.94Z"/><path class="cls-2" d="M353.72,100.4c-1.91-1.54-3.84-3.05-5.8-4.51-16-11.86-33.71-20.88-52.6-26.45-14.3-4.22-29.27-6.46-44.7-6.46s-30.4,2.25-44.7,6.46c-18.9,5.57-36.61,14.59-52.6,26.45-5.54,4.11-10.86,8.57-15.96,13.33-28.75,26.81-50.27,63.6-60.67,105.84-4.51,18.34-6.95,37.69-6.95,57.7,0,13.86,1.17,27.39,3.38,40.5-5.14,13.92-7.99,29.24-7.99,45.32,0,63.93,44.96,115.76,100.42,115.76,8.65,0,17.05-1.26,25.06-3.63,18.79,7.66,38.98,11.84,60.03,11.84s40.33-3.99,58.75-11.32c8.39,2.62,17.22,4.03,26.33,4.03,55.46,0,100.42-51.83,100.42-115.76,0-16.19-2.89-31.6-8.1-45.6,2.28-13.3,3.49-27.06,3.49-41.14,0-21.21-2.73-41.69-7.77-60.99-11.95-45.67-36.97-84.74-70.01-111.38Z"/><ellipse class="cls-4" cx="214.5" cy="372.35" rx="13.41" ry="9.63"/><ellipse class="cls-4" cx="286.73" cy="372.35" rx="13.41" ry="9.63"/><path class="cls-1" d="M154.05,281.08c-16.26-.13-32.76,8.49-37.21,21.98-2.96,6.78-1.14,29.79,9.84,18.97,7.34-7.45,14.68-14.43,27.51-14.26,12.82-.17,20.18,6.83,27.51,14.26,10.99,10.82,12.79-12.19,9.84-18.97-4.45-13.49-20.94-22.11-37.21-21.98h-.28Z"/><path class="cls-1" d="M346.9,281.08c-16.26-.13-32.76,8.49-37.21,21.98-2.96,6.78-1.14,29.79,9.84,18.97,7.34-7.45,14.68-14.43,27.51-14.26,12.82-.17,20.18,6.83,27.51,14.26,10.99,10.82,12.79-12.19,9.84-18.97-4.45-13.49-20.94-22.11-37.21-21.98h-.28Z"/><path class="cls-3" d="M488.34,327.77c-7.18,3.68-14.61,7.52-23.8,8.71-29.43,4.99-56.53-6.47-77.79,12.32-7.32,6.52-25.06,18.79-22.76,26.98,2.73,9.73,19.38,15.07,22.05,4.54,2.07-8.14,5.57-13.25,9.51-19.02,6.27-9.59,22.46-10,36.33-9.62,8.75.23,17.55.62,26.26-.12,16.48-1.39,33.28-7.16,40.96-17.46,4.63-7.22,1.93-12.83-10.59-6.41l-.17.08Z"/><path class="cls-3" d="M12.88,327.77c7.18,3.68,14.61,7.52,23.8,8.71,29.43,4.99,56.53-6.47,77.79,12.32,7.32,6.52,25.06,18.79,22.76,26.98-2.73,9.73-19.38,15.07-22.05,4.54-2.07-8.14-5.57-13.25-9.51-19.02-6.27-9.59-22.46-10-36.33-9.62-8.75.23-17.55.62-26.26-.12-16.48-1.39-33.28-7.16-40.96-17.46-4.63-7.22-1.93-12.83,10.59-6.41l.17.08Z"/></svg>